<?xml version="1.0" standalone="no"?><!DOCTYPE svg PUBLIC "-//W3C//DTD SVG 1.1//EN" "http://www.w3.org/Graphics/SVG/1.1/DTD/svg11.dtd"><svg t="1575608074263" class="icon" viewBox="0 0 1024 1024" version="1.1" xmlns="http://www.w3.org/2000/svg" p-id="1505" width="200" height="200" xmlns:xlink="http://www.w3.org/1999/xlink"><defs><style type="text/css"></style></defs><path d="M879.300581 1023.998092H378.749961a96.675596 96.675596 0 0 1-97.31162-97.31162V241.052967a97.31162 97.31162 0 0 1 97.31162-97.31162h339.636634a30.529136 30.529136 0 0 1 21.624805 8.904331l221.972257 207.979737a32.437207 32.437207 0 0 1 9.540355 23.532875v546.344324A92.859454 92.859454 0 0 1 879.300581 1023.998092zM378.749961 207.343713a33.709254 33.709254 0 0 0-33.709254 33.709254v685.633505a33.709254 33.709254 0 0 0 33.709254 33.709254H879.300581a29.893112 29.893112 0 0 0 29.257088-29.893112V397.514787l-202.255523-190.807098z" fill="#ffffff" p-id="1506"></path><path d="M149.781444 924.142377A97.947644 97.947644 0 0 1 52.469824 826.830757V97.31162A97.947644 97.947644 0 0 1 149.781444 0h381.614195A31.801183 31.801183 0 0 1 561.288751 31.801183a31.801183 31.801183 0 0 1-31.801183 31.801183h-381.614195a33.709254 33.709254 0 0 0-31.801183 33.709254V826.830757a33.709254 33.709254 0 0 0 33.709254 33.709254 31.801183 31.801183 0 0 1 0 63.602366zM706.938169 437.584278a31.801183 31.801183 0 0 1-31.801183-31.801183V181.266743a32.437207 32.437207 0 0 1 31.801183-31.801183 31.801183 31.801183 0 0 1 31.801183 31.801183v224.516352a31.801183 31.801183 0 0 1-31.801183 31.801183z" fill="#ffffff" p-id="1507"></path><path d="M928.274403 437.584278h-221.336234a31.801183 31.801183 0 0 1 0-63.602366h221.336234a31.801183 31.801183 0 0 1 0 63.602366zM765.452346 646.836062H487.510007a31.801183 31.801183 0 0 1-31.801183-31.801183 31.801183 31.801183 0 0 1 31.801183-31.801183h277.942339a31.801183 31.801183 0 0 1 31.801183 31.801183 31.801183 31.801183 0 0 1-31.801183 31.801183zM765.452346 845.911467H487.510007a31.801183 31.801183 0 0 1-31.801183-31.801183 31.801183 31.801183 0 0 1 31.801183-31.801183h277.942339a31.801183 31.801183 0 0 1 31.801183 31.801183 31.801183 31.801183 0 0 1-31.801183 31.801183z" fill="#ffffff" p-id="1508"></path></svg>