<?xml version="1.0" standalone="no"?><!DOCTYPE svg PUBLIC "-//W3C//DTD SVG 1.1//EN" "http://www.w3.org/Graphics/SVG/1.1/DTD/svg11.dtd"><svg t="1575608108722" class="icon" viewBox="0 0 1024 1024" version="1.1" xmlns="http://www.w3.org/2000/svg" p-id="1959" xmlns:xlink="http://www.w3.org/1999/xlink" width="200" height="200"><defs><style type="text/css"></style></defs><path d="M640.124 767.802h64.013l0.301 191.447-64.314 0.478zM768.149 831.955l64.013-0.234v127.837h-64.013zM896.174 703.883h64.012v255.675h-64.012zM512.099 831.721h64.013v128.006l-64.013-0.169zM496.28 767.603l-45.373-45.155L631.806 541.55l135.791 135.791 135.945-135.946 45.264 45.264-181.143 181.143-135.791-135.791z" p-id="1960" fill="#ffffff"></path><path d="M896.174 64.191l-832.162 0.078v831.693h384.075v-63.919l-320.062 0.044-0.035-703.775h704.171V448.53h64.012V64.191z" p-id="1961" fill="#ffffff"></path><path d="M192.037 320.194h384.075v-63.919H192.037v63.919z m0 127.768l320.062 0.069v-63.919H192.037v63.85z m0 128.317h192.037v-63.891l-192.037-0.028v63.919z m0 0" p-id="1962" fill="#ffffff"></path></svg>