<?xml version="1.0" standalone="no"?><!DOCTYPE svg PUBLIC "-//W3C//DTD SVG 1.1//EN" "http://www.w3.org/Graphics/SVG/1.1/DTD/svg11.dtd"><svg t="1575608114717" class="icon" viewBox="0 0 1024 1024" version="1.1" xmlns="http://www.w3.org/2000/svg" p-id="2117" xmlns:xlink="http://www.w3.org/1999/xlink" width="200" height="200"><defs><style type="text/css"></style></defs><path d="M511.650444 0c-282.606812 0-511.650239 229.043427-511.650239 511.650239s229.043427 511.650239 511.650239 511.650239 511.650239-229.043427 511.650239-511.650239-229.143359-511.650239-511.650239-511.650239z m310.887479 822.537718c-40.372402 40.372402-87.440226 72.150678-139.80443 94.235582-54.162975 22.884356-111.723626 34.476432-171.083049 34.476432-59.359422 0-116.920074-11.592076-171.083049-34.476432-52.364204-22.184835-99.332097-53.863179-139.80443-94.235582-40.372402-40.372402-72.150678-87.440226-94.235581-139.80443-22.884356-54.162975-34.476432-111.723626-34.476433-171.083049s11.592076-116.920074 34.476433-171.083049c22.184835-52.364204 53.863179-99.332097 94.235581-139.80443S288.103259 128.612082 340.467464 106.427247c54.162975-22.884356 111.723626-34.476432 171.083048-34.476432 59.359422 0 116.920074 11.592076 171.083049 34.476432 52.364204 22.184835 99.332097 53.863179 139.804431 94.235581 40.372402 40.372402 72.150678 87.440226 94.235581 139.804431 22.884356 54.162975 34.476432 111.723626 34.476432 171.083048s-11.592076 116.920074-34.476432 171.083049c-22.084903 52.464136-53.763248 99.531961-94.13565 139.904362z" p-id="2118" fill="#ffffff"></path><path d="M768.275017 552.122572c6.895286-62.057578-8.89392-124.015224-44.769396-175.480042-24.783058-35.475749-57.760515-63.856348-96.034351-82.943301-0.299795-21.685176-6.995218-42.870694-19.686543-61.058261-34.576364-49.466185-102.929638-61.657851-152.395823-27.081487-28.380599 19.786474-44.469601 50.765297-46.568166 82.843369-15.289548 6.695423-29.879575 14.989753-43.770079 24.583195-39.373085 27.481214-70.152045 65.15546-89.039134 109.025471-15.98907 37.174588-22.984288 77.447058-20.585927 117.619596-18.687226 11.092417-33.676979 27.481214-43.070558 47.667414-12.391529 26.481897-13.690641 56.161608-3.797404 83.742754 9.993169 27.481214 30.079438 49.466185 56.561335 61.857715 14.989753 6.995218 30.679028 10.292964 46.268372 10.292964 16.988387 0 33.676979-3.997267 48.766663-11.392213 39.473016 28.880258 87.140431 46.268371 136.306822 49.366254 5.396311 0.299795 10.792622 0.499658 16.188933 0.499658 22.984288 0 45.668781-3.097882 67.853616-9.093783 26.182102-7.195081 51.065092-18.487362 73.849517-33.577047 16.188933 9.093784 34.476432 13.890505 53.263589 13.890504 3.197814 0 6.395628-0.099932 9.593442-0.399726 29.180053-2.498292 55.562018-16.188933 74.349175-38.573632 18.787157-22.384698 27.781009-50.765297 25.282717-79.845418-2.997951-34.776227-21.785108-64.156143-48.5668-81.943984zM489.565541 254.625939c8.594125-5.995901 18.487362-8.89392 28.280668-8.89392 15.689275 0 31.078755 7.394945 40.672196 21.185518 7.594808 10.792622 10.492827 23.983605 8.194399 36.974724-2.298429 12.991119-9.593442 24.383332-20.386064 31.97814-22.384698 15.589343-53.263589 10.0931-68.952865-12.291597-15.689275-22.384698-10.193032-53.263589 12.191666-68.952865zM290.50162 678.436225c-11.991802-5.596174-21.085586-15.489412-25.582512-27.980872-4.496926-12.391529-3.897336-25.882307 1.698839-37.87411 8.394262-17.987704 26.282034-28.480531 44.869327-28.480531 6.995218 0 14.1903 1.498975 20.885723 4.69679 11.991802 5.596174 21.085586 15.489412 25.582512 27.980872 4.496926 12.391529 3.897336 25.882307-1.698839 37.87411-11.492144 24.683127-41.071923 35.375817-65.75505 23.783741z m114.721577 11.592076c1.898702-3.197814 3.697472-6.595491 5.396311-10.0931 12.391529-26.481897 13.690641-56.161608 3.797404-83.742754-9.993169-27.481214-30.079438-49.466185-56.561335-61.857715-13.690641-6.395628-28.280668-9.893237-42.970625-10.292964-0.099932-64.156143 30.878891-124.614814 84.442275-162.089197 7.295013-5.096516 14.989753-9.693374 22.884357-13.790572 1.79877 3.297746 3.797404 6.49556 5.995901 9.593442 21.285449 30.479165 55.362155 46.76803 89.938519 46.768029 21.585244 0 43.470284-6.395628 62.557236-19.686542 12.391529-8.694057 22.684493-19.586611 30.479165-32.078072 24.982922 14.390163 46.568166 34.076705 63.256758 58.060311 25.282717 36.175271 37.574314 79.145896 35.375817 122.816043-3.697472-0.099932-7.494877 0.099932-11.292281 0.399727-29.180053 2.498292-55.562018 16.188933-74.349175 38.573631-18.787157 22.384698-27.781009 50.765297-25.282717 79.845419 1.299112 15.089685 5.596174 29.479848 12.591393 42.371035-64.755733 37.674246-144.301356 35.375817-206.259003-4.796721z m306.79028 2.498292c-27.181419 2.298429-51.264956-17.887772-53.563384-45.069191-2.298429-27.181419 17.887772-51.264956 45.069191-53.563384 27.181419-2.298429 51.264956 17.887772 53.563384 45.069191 2.298429 27.181419-17.887772 51.264956-45.069191 53.563384z" p-id="2119" fill="#ffffff"></path></svg>